<?xml version="1.0" encoding="UTF-8"?><svg id="_圖層_2" xmlns="http://www.w3.org/2000/svg" viewBox="0 0 181.67 163.62"><defs><style>.cls-1{fill:#9b9b9c;}.cls-2{fill:#e78324;}</style></defs><g id="_圖層_1-2"><path class="cls-1" d="M181.48.19v163.24H.19V.19h181.29M181.67,0H0v163.62h181.67V0h0Z"/><path class="cls-2" d="M37.51,37.6l43.83-.09c1.83-.05,2.3.85,2.48,2.51,1.42,13.59-4.41,26.22,8.01,36.21,12.13,9.76,38.71,28.66,54,29.78,5.42.4,9.44-1.03,13.79,3.5,6.35,6.61,3.32,16.77-5.14,19.78-9.82,3.49-20.62,4.05-30.82,2.22-13.92-2.51-22.87-7.11-38.02-6.23-14.94.87-27.6,11.46-41.82,1.29-10.28-7.36-13.35-20.98-7.27-32.09,3.63-6.63,5.31-8.62,4.71-16.89-.87-12.21-4.29-25.27-5.33-37.59-.07-1.13.42-2.14,1.58-2.41ZM79.49,41.52h-39.23l5.28,36.78c1.73,15.18-14.4,22.65-5.33,38.25,10.16,17.47,24.28,7.89,38.56,5.53,9.17-1.52,17.97-1.27,27.05.66,16.87,3.6,30.26,9.73,47.9,2.48,4.88-2,6.41-7.28,3.58-11.73-3.11-4.89-8-3.11-12.8-3.49-11.33-.9-28.53-11.43-37.98-17.87-6.09-4.15-19.98-13.58-23.5-19.38-4.7-7.72-2.86-15.83-3.17-24.42-.08-2.16-.65-4.52-.35-6.8Z"/><path class="cls-2" d="M118.32,70.21c1.26-.06,2.73-.31,3.05,1.41.36,1.87-.54,2.43-2.23,2.74-3.75.68-10.7,1.33-14.53,1.42-3.14.07-4.45-1.66-1.94-3.94,5.16-.32,10.52-1.38,15.66-1.63Z"/><path class="cls-2" d="M95.55,64.56l13.63-8.83c2.55-.4,3.75,1.9,1.72,3.75-1.18,1.07-11.63,7.95-12.88,8.39-2.41.85-3.99-1.36-2.47-3.3Z"/><path class="cls-2" d="M96.7,43.25c1.7-.14,2.31,1.45,1.93,2.93-.45,1.7-5.16,11.48-6.21,13.08-1.54,2.36-4.8.91-3.79-1.8l6.53-13.42c.32-.46,1.02-.76,1.54-.8Z"/><path class="cls-2" d="M63.12,66.54c4.54-.55,8.44,2.51,10.44,6.34,1.55,2.95,3.26,5.92,4.77,8.86,6.15,12.03-6.78,25.49-17.9,17.24-4.98-3.7-4.52-7.71-5.24-13.05-.26-1.9-1.48-3.83-1.63-6.02-.39-5.82,3.33-12.61,9.55-13.37ZM62.78,70.85c-4.31.91-5.52,6.6-4.81,10.31.62,3.23,1.16,5.58,1.66,8.97,1.39,9.43,14.79,9.53,16.12-.33.67-5-1.34-5.84-3.29-9.5-2.21-4.14-3.5-10.75-9.68-9.45Z"/></g></svg>