<?xml version="1.0" encoding="UTF-8"?><svg id="_圖層_2" xmlns="http://www.w3.org/2000/svg" viewBox="0 0 181.67 163.62"><defs><style>.cls-1{fill:#9b9b9c;}.cls-2{fill:#e78324;}</style></defs><g id="_圖層_1-2"><path class="cls-1" d="M158.36.09c12.8,0,23.21,10.41,23.21,23.21v117c0,12.8-10.41,23.21-23.21,23.21H23.31C10.51,163.52.09,153.11.09,140.31V23.31C.09,10.51,10.51.09,23.31.09h135.05M158.36,0H23.31C10.44,0,0,10.44,0,23.31v117c0,12.87,10.44,23.31,23.31,23.31h135.05c12.87,0,23.31-10.44,23.31-23.31V23.31c0-12.87-10.44-23.31-23.31-23.31h0Z"/><path class="cls-2" d="M109.9,24.92c-7.32,0-6.85,6.37-11.04,10.18-3.43,3.11-8.66,3.11-12.08,0-4.15-3.77-3.76-10.18-11.05-10.18-9.88,0-10.73,13.68-2.52,16,8.37,2.36,11.36,8.47,11.49,9.7.98,9.18,15.25,9.18,16.23,0,.04-.37,2.34-7.2,11.42-9.68,8.28-2.27,7.47-16.02-2.45-16.02Z"/><path class="cls-2" d="M109.9,53.55c-7.32,0-6.85,6.37-11.04,10.18-3.43,3.11-8.66,3.11-12.08,0-4.15-3.77-3.76-10.18-11.05-10.18-9.88,0-10.73,13.68-2.52,16,8.37,2.36,11.36,8.47,11.49,9.7.98,9.18,15.25,9.18,16.23,0,.04-.37,2.34-7.2,11.42-9.68,8.28-2.27,7.47-16.02-2.45-16.02Z"/><path class="cls-2" d="M109.9,82.18c-7.32,0-6.85,6.37-11.04,10.18-3.43,3.11-8.66,3.11-12.08,0-4.15-3.77-3.76-10.18-11.05-10.18-9.88,0-10.73,13.68-2.52,16,8.37,2.36,11.36,8.47,11.49,9.7.98,9.18,15.25,9.18,16.23,0,.04-.37,2.34-7.2,11.42-9.68,8.28-2.27,7.47-16.02-2.45-16.02Z"/><path class="cls-2" d="M109.9,110.81c-7.32,0-6.85,6.37-11.04,10.18-3.43,3.11-8.66,3.11-12.08,0-4.15-3.77-3.76-10.18-11.05-10.18-9.88,0-10.73,13.68-2.52,16,8.37,2.36,11.36,8.47,11.49,9.7.98,9.18,15.25,9.18,16.23,0,.04-.37,2.34-7.2,11.42-9.68,8.28-2.27,7.47-16.02-2.45-16.02Z"/><path class="cls-2" d="M61.39,73.93c-.27.23-1.86.41-2.32.19-4.95-2.98-11.68-5.05-16.42-8.15-2.27-1.48-.15-4.4,2.27-3.57l16.01,7.99c1.3.56,1.32,2.83.46,3.54Z"/><path class="cls-2" d="M140.74,94.41c1.62,1.35.5,4.08-2.13,3.52-2.01-.43-6.47-3.18-8.48-4.2s-6.36-2.69-7.84-3.79c-.15-.11-1.12-1.46-1.1-1.56.34-2.11,1.44-2.41,3.43-1.99l16.13,8.02Z"/><path class="cls-2" d="M140.75,62.71c1.03.84.69,2.29,0,3.2-4.48,1.86-8.63,4.48-13.01,6.52-.87.4-1.9.69-2.79,1.05-.11.04-.11.45-.32.5-1.54.39-3.9-.38-3.43-2.23.05-.18,1.71-1.84,1.91-1.96.34-.2.87-.16,1.3-.39,4.55-2.49,9.35-4.55,13.91-7.02.75-.18,1.83-.17,2.44.32Z"/><path class="cls-2" d="M60.77,86.41c.06.02.77.84.79.9.55,1.56.11,1.93-1.11,2.76-4.42,2.99-10.93,4.95-15.59,7.79-2.38.9-4.44-2.21-2.07-3.63,4.92-2.94,10.92-4.89,15.94-7.74.66-.26,1.37-.31,2.06-.08Z"/><path class="cls-2" d="M41.06,78.37l17.47-.05c1.57.3,1.82,3.32,0,3.68h-17.22c-1.86-.55-1.81-2.7-.26-3.63Z"/><path class="cls-2" d="M142.82,79.42c.07.12.44.14.48.34.15.73-.32,2.18-1.06,2.27h-17.25c-1.86.05-1.82-2.95-.44-3.55l17.38-.17c.71,0,.61.65.89,1.11Z"/></g></svg>